<?xml version="1.0" encoding="utf-8"?>
<!-- Uploaded to: SVG Repo, www.svgrepo.com, Generator: SVG Repo Mixer Tools -->
<svg width="800px" height="800px" viewBox="0 -1 20 20" xmlns="http://www.w3.org/2000/svg">
  <g id="road-block" transform="translate(-2 -3)">
    <rect id="secondary" fill="param(fill)" width="18" height="6" rx="1" transform="translate(3 6)"/>
    <path id="primary" d="M6,6V4m0,8v8M18,6V4m0,8v8m-2,0h4M4,20H8m13-9V7a1,1,0,0,0-1-1H4A1,1,0,0,0,3,7v4a1,1,0,0,0,1,1H20A1,1,0,0,0,21,11Z" fill="none" stroke="#000000" stroke-linecap="round" stroke-linejoin="round" stroke-width="2"/>
  </g>
</svg>